<mxfile host="app.diagrams.net" agent="Mozilla/5.0 (Windows NT 10.0; Win64; x64) AppleWebKit/537.36 (KHTML, like Gecko) Chrome/128.0.0.0 Safari/537.36" version="24.7.7">
  <diagram name="第 1 页" id="-gZ7mcxJ6CTrmc3DkO0b">
    <mxGraphModel dx="1685" dy="878" grid="1" gridSize="10" guides="1" tooltips="1" connect="1" arrows="1" fold="1" page="1" pageScale="1" pageWidth="827" pageHeight="1169" math="0" shadow="0">
      <root>
        <mxCell id="0" />
        <mxCell id="1" parent="0" />
        <mxCell id="M34XePDY0Y_x81yUVz7T-9" style="edgeStyle=orthogonalEdgeStyle;rounded=0;orthogonalLoop=1;jettySize=auto;html=1;entryX=0.5;entryY=0;entryDx=0;entryDy=0;fontSize=16;" edge="1" parent="1" source="M34XePDY0Y_x81yUVz7T-1" target="M34XePDY0Y_x81yUVz7T-3">
          <mxGeometry relative="1" as="geometry" />
        </mxCell>
        <mxCell id="M34XePDY0Y_x81yUVz7T-1" value="空管开盒" style="rounded=0;whiteSpace=wrap;html=1;fontSize=16;" vertex="1" parent="1">
          <mxGeometry x="350" y="200" width="120" height="60" as="geometry" />
        </mxCell>
        <mxCell id="M34XePDY0Y_x81yUVz7T-6" value="" style="edgeStyle=orthogonalEdgeStyle;rounded=0;orthogonalLoop=1;jettySize=auto;html=1;fontSize=16;" edge="1" parent="1" source="M34XePDY0Y_x81yUVz7T-2">
          <mxGeometry relative="1" as="geometry">
            <mxPoint x="410" y="200" as="targetPoint" />
          </mxGeometry>
        </mxCell>
        <mxCell id="M34XePDY0Y_x81yUVz7T-10" style="edgeStyle=orthogonalEdgeStyle;rounded=0;orthogonalLoop=1;jettySize=auto;html=1;entryX=0.5;entryY=0;entryDx=0;entryDy=0;fontSize=16;" edge="1" parent="1" source="M34XePDY0Y_x81yUVz7T-2" target="M34XePDY0Y_x81yUVz7T-1">
          <mxGeometry relative="1" as="geometry" />
        </mxCell>
        <mxCell id="M34XePDY0Y_x81yUVz7T-2" value="血样扫码" style="rounded=0;whiteSpace=wrap;html=1;fontSize=16;" vertex="1" parent="1">
          <mxGeometry x="350" y="110" width="120" height="60" as="geometry" />
        </mxCell>
        <mxCell id="M34XePDY0Y_x81yUVz7T-11" style="edgeStyle=orthogonalEdgeStyle;rounded=0;orthogonalLoop=1;jettySize=auto;html=1;entryX=0.5;entryY=0;entryDx=0;entryDy=0;fontSize=16;" edge="1" parent="1" source="M34XePDY0Y_x81yUVz7T-3" target="M34XePDY0Y_x81yUVz7T-4">
          <mxGeometry relative="1" as="geometry" />
        </mxCell>
        <mxCell id="M34XePDY0Y_x81yUVz7T-3" value="放入试剂1" style="rounded=0;whiteSpace=wrap;html=1;fontSize=16;" vertex="1" parent="1">
          <mxGeometry x="350" y="300" width="120" height="60" as="geometry" />
        </mxCell>
        <mxCell id="M34XePDY0Y_x81yUVz7T-12" style="edgeStyle=orthogonalEdgeStyle;rounded=0;orthogonalLoop=1;jettySize=auto;html=1;entryX=0.5;entryY=0;entryDx=0;entryDy=0;fontSize=16;" edge="1" parent="1" source="M34XePDY0Y_x81yUVz7T-4" target="M34XePDY0Y_x81yUVz7T-5">
          <mxGeometry relative="1" as="geometry" />
        </mxCell>
        <mxCell id="M34XePDY0Y_x81yUVz7T-4" value="震荡" style="rounded=0;whiteSpace=wrap;html=1;fontSize=16;" vertex="1" parent="1">
          <mxGeometry x="350" y="390" width="120" height="60" as="geometry" />
        </mxCell>
        <mxCell id="M34XePDY0Y_x81yUVz7T-21" style="edgeStyle=orthogonalEdgeStyle;rounded=0;orthogonalLoop=1;jettySize=auto;html=1;entryX=0.5;entryY=0;entryDx=0;entryDy=0;" edge="1" parent="1" source="M34XePDY0Y_x81yUVz7T-5" target="M34XePDY0Y_x81yUVz7T-18">
          <mxGeometry relative="1" as="geometry" />
        </mxCell>
        <mxCell id="M34XePDY0Y_x81yUVz7T-5" value="加热" style="rounded=0;whiteSpace=wrap;html=1;fontSize=16;" vertex="1" parent="1">
          <mxGeometry x="350" y="480" width="120" height="60" as="geometry" />
        </mxCell>
        <mxCell id="M34XePDY0Y_x81yUVz7T-13" value="" style="endArrow=classic;html=1;rounded=0;exitX=0;exitY=0.5;exitDx=0;exitDy=0;entryX=0;entryY=0.5;entryDx=0;entryDy=0;fontSize=16;" edge="1" parent="1" source="M34XePDY0Y_x81yUVz7T-5" target="M34XePDY0Y_x81yUVz7T-1">
          <mxGeometry width="50" height="50" relative="1" as="geometry">
            <mxPoint x="200" y="340" as="sourcePoint" />
            <mxPoint x="250" y="220" as="targetPoint" />
            <Array as="points">
              <mxPoint x="280" y="510" />
              <mxPoint x="280" y="230" />
            </Array>
          </mxGeometry>
        </mxCell>
        <mxCell id="M34XePDY0Y_x81yUVz7T-17" value="循环动作1" style="edgeLabel;html=1;align=center;verticalAlign=middle;resizable=0;points=[];fontSize=16;" vertex="1" connectable="0" parent="M34XePDY0Y_x81yUVz7T-13">
          <mxGeometry x="-0.0103" relative="1" as="geometry">
            <mxPoint y="8" as="offset" />
          </mxGeometry>
        </mxCell>
        <mxCell id="M34XePDY0Y_x81yUVz7T-24" style="edgeStyle=orthogonalEdgeStyle;rounded=0;orthogonalLoop=1;jettySize=auto;html=1;entryX=0.5;entryY=0;entryDx=0;entryDy=0;fontSize=16;" edge="1" parent="1" source="M34XePDY0Y_x81yUVz7T-18" target="M34XePDY0Y_x81yUVz7T-19">
          <mxGeometry relative="1" as="geometry" />
        </mxCell>
        <mxCell id="M34XePDY0Y_x81yUVz7T-18" value="加入试剂2" style="rounded=0;whiteSpace=wrap;html=1;fontSize=16;" vertex="1" parent="1">
          <mxGeometry x="350" y="570" width="120" height="60" as="geometry" />
        </mxCell>
        <mxCell id="M34XePDY0Y_x81yUVz7T-25" style="edgeStyle=orthogonalEdgeStyle;rounded=0;orthogonalLoop=1;jettySize=auto;html=1;entryX=0.5;entryY=0;entryDx=0;entryDy=0;fontSize=16;" edge="1" parent="1" source="M34XePDY0Y_x81yUVz7T-19" target="M34XePDY0Y_x81yUVz7T-20">
          <mxGeometry relative="1" as="geometry" />
        </mxCell>
        <mxCell id="M34XePDY0Y_x81yUVz7T-19" value="震荡" style="rounded=0;whiteSpace=wrap;html=1;fontSize=16;" vertex="1" parent="1">
          <mxGeometry x="350" y="660" width="120" height="60" as="geometry" />
        </mxCell>
        <mxCell id="M34XePDY0Y_x81yUVz7T-20" value="移除样品" style="rounded=0;whiteSpace=wrap;html=1;fontSize=16;" vertex="1" parent="1">
          <mxGeometry x="350" y="750" width="120" height="60" as="geometry" />
        </mxCell>
        <mxCell id="M34XePDY0Y_x81yUVz7T-26" value="" style="endArrow=classic;html=1;rounded=0;exitX=0;exitY=0.5;exitDx=0;exitDy=0;entryX=0;entryY=0.5;entryDx=0;entryDy=0;fontSize=16;" edge="1" parent="1" source="M34XePDY0Y_x81yUVz7T-20" target="M34XePDY0Y_x81yUVz7T-18">
          <mxGeometry width="50" height="50" relative="1" as="geometry">
            <mxPoint x="260" y="810" as="sourcePoint" />
            <mxPoint x="290" y="620" as="targetPoint" />
            <Array as="points">
              <mxPoint x="280" y="780" />
              <mxPoint x="280" y="600" />
            </Array>
          </mxGeometry>
        </mxCell>
        <mxCell id="M34XePDY0Y_x81yUVz7T-27" value="循环动作2" style="edgeLabel;html=1;align=center;verticalAlign=middle;resizable=0;points=[];fontSize=16;" vertex="1" connectable="0" parent="M34XePDY0Y_x81yUVz7T-26">
          <mxGeometry x="-0.0375" y="1" relative="1" as="geometry">
            <mxPoint y="-6" as="offset" />
          </mxGeometry>
        </mxCell>
      </root>
    </mxGraphModel>
  </diagram>
</mxfile>
